<svg width="22" height="22" viewBox="0 0 22 22" fill="none" xmlns="http://www.w3.org/2000/svg">
<path d="M19.3438 16.1561H17.6961C17.5836 16.1561 17.4782 16.2053 17.4078 16.2921C17.2438 16.4913 17.068 16.6835 16.8828 16.8663C16.1256 17.6243 15.2286 18.2284 14.2414 18.6452C13.2188 19.0771 12.1196 19.2987 11.0094 19.2968C9.88675 19.2968 8.79925 19.0764 7.77738 18.6452C6.79026 18.2284 5.89325 17.6243 5.13597 16.8663C4.37733 16.1108 3.77242 15.2154 3.35472 14.2296C2.92113 13.2077 2.70316 12.1225 2.70316 10.9999C2.70316 9.87722 2.92347 8.79207 3.35472 7.77019C3.77191 6.78347 4.37191 5.89519 5.13597 5.13347C5.90003 4.37175 6.78831 3.77175 7.77738 3.35456C8.79925 2.92331 9.88675 2.703 11.0094 2.703C12.1321 2.703 13.2196 2.92097 14.2414 3.35456C15.2305 3.77175 16.1188 4.37175 16.8828 5.13347C17.068 5.31863 17.2414 5.51081 17.4078 5.70769C17.4782 5.79441 17.586 5.84363 17.6961 5.84363H19.3438C19.4914 5.84363 19.5828 5.67956 19.5008 5.55535C17.7032 2.7616 14.5578 0.912377 10.9836 0.921752C5.368 0.935815 0.865658 5.49441 0.921908 11.103C0.978158 16.6225 5.47347 21.078 11.0094 21.078C14.5743 21.078 17.7055 19.2311 19.5008 16.4444C19.5805 16.3202 19.4914 16.1561 19.3438 16.1561ZM21.4274 10.8522L18.1016 8.22722C17.9774 8.12878 17.7969 8.21785 17.7969 8.37488V10.1561H10.4375C10.3344 10.1561 10.25 10.2405 10.25 10.3436V11.6561C10.25 11.7593 10.3344 11.8436 10.4375 11.8436H17.7969V13.6249C17.7969 13.7819 17.9797 13.871 18.1016 13.7725L21.4274 11.1475C21.4498 11.13 21.4679 11.1076 21.4804 11.082C21.4928 11.0564 21.4993 11.0283 21.4993 10.9999C21.4993 10.9714 21.4928 10.9433 21.4804 10.9178C21.4679 10.8922 21.4498 10.8698 21.4274 10.8522Z" fill="black"/>
</svg>
