<svg width="17" height="16" viewBox="0 0 17 16" fill="none" xmlns="http://www.w3.org/2000/svg">
<path d="M14.4624 5.26872C14.3525 5.06441 14.1392 4.9375 13.9055 4.9375H12.1132C11.9636 4.10391 11.2271 3.46875 10.3432 3.46875C9.45935 3.46875 8.72289 4.10391 8.57325 4.9375H6.75749C6.8999 4.72163 6.98306 4.46406 6.98306 4.1875C6.98306 3.42931 6.36036 2.8125 5.59493 2.8125C4.82951 2.8125 4.20681 3.42931 4.20681 4.1875C4.20681 4.46406 4.28997 4.72163 4.43238 4.9375H2.95194C2.71826 4.9375 2.5049 5.06441 2.39505 5.26872C2.28523 5.473 2.29797 5.71922 2.42836 5.91128L6.66202 12.1474V15.6875C6.66202 15.7929 6.71562 15.8912 6.80462 15.9489C6.85677 15.9827 6.917 16 6.97754 16C7.02025 16 7.06313 15.9914 7.10348 15.974L10.0059 14.722C10.121 14.6724 10.1954 14.5599 10.1954 14.4355V12.1474L14.4291 5.91125C14.5595 5.71922 14.5722 5.473 14.4624 5.26872ZM10.3432 4.09375C10.8776 4.09375 11.3288 4.45134 11.4669 4.9375H9.21965C9.35764 4.45134 9.80894 4.09375 10.3432 4.09375ZM5.59496 3.4375C6.01244 3.4375 6.35212 3.77397 6.35212 4.1875C6.35212 4.60103 6.01244 4.9375 5.59496 4.9375C5.17749 4.9375 4.8378 4.60103 4.8378 4.1875C4.8378 3.77397 5.17749 3.4375 5.59496 3.4375ZM9.61813 11.8777C9.58315 11.9292 9.56444 11.9899 9.56444 12.0521V14.2308L7.29296 15.2106V12.3646H8.4327C8.60695 12.3646 8.74819 12.2247 8.74819 12.0521C8.74819 11.8795 8.60695 11.7396 8.4327 11.7396H7.1455L3.97038 7.0625H10.3432C10.5175 7.0625 10.6587 6.92259 10.6587 6.75C10.6587 6.57741 10.5175 6.4375 10.3432 6.4375H3.54609L2.95207 5.5625H13.9055L9.61813 11.8777Z" fill="black"/>
<path d="M9.50531 0C8.73989 0 8.11719 0.616813 8.11719 1.375C8.11719 2.13319 8.73992 2.75 9.50531 2.75C10.2707 2.75 10.8934 2.13319 10.8934 1.375C10.8934 0.616813 10.2707 0 9.50531 0ZM9.50531 2.125C9.08783 2.125 8.74815 1.78853 8.74815 1.375C8.74815 0.961469 9.08783 0.625 9.50531 0.625C9.92279 0.625 10.2625 0.961469 10.2625 1.375C10.2625 1.78853 9.92279 2.125 9.50531 2.125Z" fill="black"/>
<path d="M12.877 1.51041C12.7028 1.51041 12.5615 1.65031 12.5615 1.82291V3.59897C12.5615 3.77159 12.7028 3.9115 12.877 3.9115C13.0512 3.9115 13.1925 3.77159 13.1925 3.599V1.82291C13.1925 1.65031 13.0512 1.51041 12.877 1.51041Z" fill="black"/>
<path d="M13.1001 0.575938C13.0414 0.517813 12.96 0.484375 12.877 0.484375C12.794 0.484375 12.7126 0.517813 12.654 0.575938C12.5953 0.634063 12.5615 0.714687 12.5615 0.796875C12.5615 0.879063 12.5953 0.959687 12.654 1.01781C12.7126 1.07594 12.794 1.10938 12.877 1.10938C12.96 1.10938 13.0414 1.07594 13.1001 1.01781C13.1587 0.959687 13.1925 0.879063 13.1925 0.796875C13.1925 0.714687 13.1587 0.634063 13.1001 0.575938Z" fill="black"/>
<path d="M6.66753 0.39859C6.49329 0.39859 6.35205 0.538496 6.35205 0.71109V1.99234C6.35205 2.16493 6.49329 2.30484 6.66753 2.30484C6.84178 2.30484 6.98302 2.16493 6.98302 1.99234V0.71109C6.98302 0.538496 6.84178 0.39859 6.66753 0.39859Z" fill="black"/>
<path d="M2.37115 0C2.19691 0 2.05566 0.139906 2.05566 0.3125V2.349C2.05566 2.52159 2.19691 2.6615 2.37115 2.6615C2.54539 2.6615 2.68663 2.52159 2.68663 2.349V0.3125C2.68663 0.139906 2.54539 0 2.37115 0Z" fill="black"/>
<path d="M2.59419 3.3C2.53551 3.24156 2.45412 3.20844 2.37115 3.20844C2.28818 3.20844 2.20678 3.24156 2.1481 3.3C2.08942 3.35812 2.05566 3.43844 2.05566 3.52094C2.05566 3.60312 2.08942 3.68375 2.1481 3.74187C2.20678 3.8 2.28818 3.83344 2.37115 3.83344C2.45412 3.83344 2.53551 3.8 2.59419 3.74187C2.65287 3.68375 2.68663 3.60312 2.68663 3.52094C2.68663 3.43844 2.65287 3.35812 2.59419 3.3Z" fill="black"/>
<path d="M11.9687 6.52906C11.91 6.47094 11.8286 6.4375 11.7457 6.4375C11.6624 6.4375 11.581 6.47094 11.5226 6.52906C11.4636 6.58719 11.4302 6.66781 11.4302 6.75C11.4302 6.83219 11.4636 6.91281 11.5226 6.97094C11.5813 7.02906 11.6624 7.0625 11.7457 7.0625C11.8286 7.0625 11.9097 7.02906 11.9687 6.97094C12.0274 6.91281 12.0611 6.83219 12.0611 6.75C12.0611 6.66781 12.0274 6.58719 11.9687 6.52906Z" fill="black"/>
</svg>
