<svg width="82" height="81" viewBox="0 0 82 81" fill="none" xmlns="http://www.w3.org/2000/svg">
<g clip-path="url(#clip0)">
<path d="M33.2272 59.0279L27.6498 55.8211C26.2258 54.9897 25.3951 53.5645 25.3951 51.9018V39.0748C25.3951 37.412 26.2258 35.9868 27.6498 35.1554L38.686 28.7419C39.398 28.3856 40.11 28.1481 40.9407 28.1481V0C38.9233 0 36.7873 0.475073 35.0072 1.54399L5.93343 18.4091C2.2547 20.5469 0 24.4663 0 28.7419V62.3534C0 66.629 2.2547 70.5484 5.93343 72.6862L20.411 81.1188L33.2272 59.0279Z" fill="#F04E3E"/>
<path d="M75.9479 18.4091L46.9928 1.54399C45.0941 0.475073 43.0767 0 40.9407 0V28.2669C41.7714 28.2669 42.4834 28.5044 43.1954 28.8607L54.2316 35.2742C55.6556 36.1056 56.4863 37.5308 56.4863 39.1936V51.9018C56.4863 53.5645 55.6556 54.9897 54.2316 55.8211L48.6541 59.0279L61.3517 81L75.9479 72.6862C79.6266 70.5484 81.8813 66.629 81.8813 62.3534V28.7419C82 24.4663 79.6266 20.5469 75.9479 18.4091Z" fill="#E8C446"/>
</g>
<defs>
<clipPath id="clip0">
<rect width="82" height="81" fill="white"/>
</clipPath>
</defs>
</svg>
