<svg width="43" height="42" viewBox="0 0 43 42" fill="none" xmlns="http://www.w3.org/2000/svg">
<path d="M33.6269 18.5462C33.6269 19.0574 33.1696 19.4664 32.6293 19.4664C32.3175 19.4664 32.0474 19.3437 31.8603 19.1392L31.8395 19.1597L21.5935 3.53749L18.4137 8.26095C18.2682 8.58812 17.8942 8.8335 17.4785 8.8335C16.9174 8.8335 16.4809 8.42454 16.4809 7.91334C16.4809 7.8111 16.5017 7.70886 16.5433 7.60662L16.4809 7.56572L21.5727 0L33.3359 17.9328C33.523 18.0964 33.6269 18.3009 33.6269 18.5462Z" fill="#23857E"/>
<path d="M43 9.38559L30.0314 29.5881L29.9898 29.5677C29.8236 29.8744 29.4911 30.0993 29.117 30.0993C28.5766 30.0993 28.1402 29.6699 28.1402 29.1383C28.1402 28.8724 28.2441 28.6271 28.4103 28.4635L39.5916 11.1441H30.0938C30.0522 11.1441 30.0106 11.1441 29.9898 11.1441C29.5534 11.0828 29.2001 10.7147 29.2001 10.2648C29.2001 9.79454 29.5742 9.42648 30.0314 9.38559C30.0522 9.38559 30.073 9.38559 30.0938 9.38559H43Z" fill="#3858C7"/>
<path d="M43 32.7167H18.9125C18.4137 32.7167 17.9981 32.3077 17.9981 31.8169C17.9981 31.3058 18.4137 30.9172 18.9125 30.9172H39.4877L35.0817 24.0467C34.9154 23.8832 34.8323 23.6582 34.8323 23.4129C34.8323 22.9221 35.2479 22.5131 35.7467 22.5131C36.1 22.5131 36.4118 22.7176 36.5573 22.9834L43 32.7167Z" fill="#CB6183"/>
<path d="M26.2073 34.7819L21.4065 42L9.53939 24.1081L9.58096 24.0876C9.49783 23.9445 9.45626 23.8014 9.45626 23.6378C9.45626 23.1266 9.8927 22.6972 10.4123 22.6972C10.8072 22.6972 11.1397 22.9221 11.2852 23.2493L21.2818 38.5034L24.711 33.7595C24.8564 33.4732 25.1682 33.2687 25.5215 33.2687C26.0203 33.2687 26.436 33.6777 26.436 34.1685C26.436 34.4138 26.3528 34.6388 26.2073 34.7819Z" fill="#369043"/>
<path d="M14.9845 13.2911L3.42919 30.9377H11.9087C11.9918 30.9172 12.0749 30.8968 12.158 30.8968C12.6776 30.8968 13.0933 31.3057 13.0933 31.8169C13.0933 32.3281 12.6776 32.7371 12.158 32.7371C12.1165 32.7371 12.0957 32.7371 12.0541 32.7371H0L13.5089 12.1052L13.5505 12.1461C13.7168 11.9416 13.9869 11.7984 14.2779 11.7984C14.7975 11.7984 15.2131 12.2074 15.2131 12.7186C15.1924 12.9231 15.1092 13.1276 14.9845 13.2911Z" fill="#B23425"/>
<path d="M24.9396 10.2648C24.9396 10.7351 24.5655 11.1237 24.0875 11.1441H3.47076L8.02223 18.1782C8.12615 18.3213 8.1885 18.5054 8.1885 18.6894C8.1885 19.1801 7.77284 19.5891 7.25326 19.5891C6.92074 19.5891 6.60899 19.4051 6.46351 19.1392L0 9.38559H24.0667C24.5447 9.40603 24.9396 9.79454 24.9396 10.2648Z" fill="#7E7E7E"/>
<path d="M26.1658 23.3924C23.9836 22.6154 21.5935 24.3739 21.5935 24.3739L20.3673 23.1061C18.7463 21.0409 19.1827 19.7731 19.1827 19.7731C19.3074 18.6485 21.0739 18.1373 21.0739 18.1373L21.8845 18.5258C23.2354 19.1188 23.0068 20.407 23.0068 20.407C22.6535 21.8588 21.448 21.2863 21.448 21.2863C20.7414 20.8364 21.2402 19.5278 21.2402 19.5278C20.5544 20.1003 20.4712 20.8978 20.4712 20.8978C20.4297 23.0448 22.9029 22.186 22.9029 22.186C24.129 21.6134 24.0875 20.591 24.0875 20.591C24.4616 18.1986 22.1131 17.5034 22.1131 17.5034C23.2562 16.0925 22.8405 14.7838 22.8405 14.7838C22.1131 12.8208 20.4712 13.6388 20.4712 13.6388C17.9981 15.1315 19.8478 17.3603 19.8478 17.3603C17.7279 18.3009 17.8734 19.8549 17.8734 19.8549C17.4577 22.5949 20.6583 24.742 20.6583 24.742L20.2011 24.9464C18.0604 22.4109 15.9405 23.5969 15.9405 23.5969C13.7168 24.8033 15.5665 26.2551 15.5665 26.2551C17.333 27.2775 20.2011 25.9075 20.2011 25.9075L21.9053 27.2162L20.6583 25.7235L21.8845 25.335L22.217 25.5599C25.9372 28.0341 27.4543 25.7235 27.4543 25.7235C28.3272 24.2308 26.1658 23.3924 26.1658 23.3924ZM21.0324 14.4976C21.0947 14.4771 21.1571 14.4567 21.2194 14.4771C21.8014 14.7021 21.7806 15.4791 21.739 15.9903C21.6974 16.4197 21.2402 17.1762 20.9908 17.0127C20.3465 16.5833 20.0348 14.8043 21.0324 14.4976ZM16.1068 25.335C15.4418 24.4353 17.0628 24.2308 17.0628 24.2308C18.1228 24.1694 19.3905 25.335 19.3905 25.335C16.5225 26.1529 16.1068 25.335 16.1068 25.335ZM26.5607 25.335C26.5607 25.335 25.3552 26.3165 22.695 24.9464C22.695 24.9464 23.8173 24.2103 25.0435 24.2308C25.0435 24.2308 26.8101 24.4148 26.5607 25.335Z" fill="black"/>
</svg>
