<svg width="84" height="83" viewBox="0 0 84 83" fill="none" xmlns="http://www.w3.org/2000/svg">
<path d="M65.6897 36.6509C65.6897 37.6611 64.7965 38.4693 63.7409 38.4693C63.1319 38.4693 62.6041 38.2269 62.2387 37.8228L62.1981 37.8632L42.1827 6.99075L35.971 16.3252C35.6868 16.9718 34.956 17.4567 34.144 17.4567C33.0478 17.4567 32.1953 16.6485 32.1953 15.6383C32.1953 15.4362 32.2358 15.2342 32.317 15.0321L32.1953 14.9513L42.1421 0L65.1213 35.4387C65.4867 35.7619 65.6897 36.166 65.6897 36.6509Z" fill="#23857E"/>
<path d="M84 18.5477L58.666 58.4718L58.5848 58.4314C58.26 59.0375 57.6104 59.482 56.8796 59.482C55.8241 59.482 54.9715 58.6334 54.9715 57.5828C54.9715 57.0574 55.1745 56.5725 55.4993 56.2493L77.3417 22.0229H58.7878C58.7066 22.0229 58.6254 22.0229 58.5848 22.0229C57.7322 21.9017 57.042 21.1743 57.042 20.2853C57.042 19.3559 57.7728 18.6285 58.666 18.5477C58.7066 18.5477 58.7472 18.5477 58.7878 18.5477H84Z" fill="#3858C7"/>
<path d="M84 64.6543H36.9454C35.971 64.6543 35.159 63.8461 35.159 62.8763C35.159 61.8661 35.971 61.0983 36.9454 61.0983H77.1387L68.5317 47.5209C68.2069 47.1977 68.0445 46.7532 68.0445 46.2682C68.0445 45.2984 68.8564 44.4902 69.8308 44.4902C70.521 44.4902 71.13 44.8943 71.4142 45.4197L84 64.6543Z" fill="#CB6183"/>
<path d="M51.1957 68.7356L41.8173 83L18.6351 47.6422L18.7163 47.6018C18.5539 47.3189 18.4727 47.036 18.4727 46.7128C18.4727 45.7025 19.3253 44.8539 20.3403 44.8539C21.1116 44.8539 21.7612 45.2984 22.0454 45.945L41.5737 76.0901L48.2726 66.7152C48.5568 66.1495 49.1658 65.7454 49.856 65.7454C50.8303 65.7454 51.6423 66.5536 51.6423 67.5234C51.6423 68.0083 51.4799 68.4528 51.1957 68.7356Z" fill="#369043"/>
<path d="M29.2721 26.2658L6.69889 61.1388H23.2634C23.4258 61.0984 23.5882 61.0579 23.7506 61.0579C24.7656 61.0579 25.5776 61.8661 25.5776 62.8763C25.5776 63.8866 24.7656 64.6947 23.7506 64.6947C23.6694 64.6947 23.6288 64.6947 23.5476 64.6947H0L26.3896 23.9221L26.4708 24.0029C26.7956 23.5988 27.3233 23.316 27.8917 23.316C28.9067 23.316 29.7187 24.1241 29.7187 25.1344C29.6781 25.5385 29.5157 25.9425 29.2721 26.2658Z" fill="#B23425"/>
<path d="M48.7192 20.2853C48.7192 21.2147 47.9884 21.9825 47.0546 22.0229H6.78009L15.6713 35.9236C15.8743 36.2064 15.9961 36.5701 15.9961 36.9338C15.9961 37.9036 15.1842 38.7118 14.1692 38.7118C13.5196 38.7118 12.9106 38.3481 12.6264 37.8228L0 18.5477H47.014C47.9478 18.5881 48.7192 19.3559 48.7192 20.2853Z" fill="#B2B2B2"/>
<path d="M51.1146 46.2278C46.8516 44.6923 42.1827 48.1675 42.1827 48.1675L39.7873 45.6621C36.6206 41.5808 37.4732 39.0755 37.4732 39.0755C37.7168 36.853 41.1677 35.8427 41.1677 35.8427L42.7511 36.6105C45.39 37.7824 44.9435 40.3281 44.9435 40.3281C44.2533 43.1972 41.8985 42.0657 41.8985 42.0657C40.5181 41.1767 41.4925 38.5906 41.4925 38.5906C40.1527 39.722 39.9903 41.298 39.9903 41.298C39.9091 45.5409 44.7405 43.8437 44.7405 43.8437C47.1358 42.7123 47.0546 40.6918 47.0546 40.6918C47.7854 35.964 43.1977 34.5901 43.1977 34.5901C45.4306 31.8019 44.6187 29.2157 44.6187 29.2157C43.1977 25.3364 39.9903 26.9528 39.9903 26.9528C35.159 29.9026 38.7724 34.3072 38.7724 34.3072C34.6312 36.166 34.9154 39.2371 34.9154 39.2371C34.1034 44.6519 40.3557 48.8948 40.3557 48.8948L39.4625 49.2989C35.2808 44.2882 31.1397 46.6319 31.1397 46.6319C26.7956 49.0161 30.4089 51.8851 30.4089 51.8851C33.8598 53.9055 39.4625 51.1981 39.4625 51.1981L42.7917 53.7843L40.3557 50.8345L42.7511 50.0667L43.4007 50.5112C50.668 55.4007 53.6317 50.8345 53.6317 50.8345C55.3369 47.8846 51.1146 46.2278 51.1146 46.2278ZM41.0865 28.65C41.2083 28.6095 41.3301 28.5691 41.4519 28.6095C42.5887 29.054 42.5481 30.5896 42.4669 31.5998C42.3857 32.4484 41.4925 33.9435 41.0053 33.6203C39.7467 32.7717 39.1378 29.2561 41.0865 28.65ZM31.4645 50.0667C30.1653 48.2887 33.3321 47.8846 33.3321 47.8846C35.4026 47.7634 37.8792 50.0667 37.8792 50.0667C32.2765 51.6831 31.4645 50.0667 31.4645 50.0667ZM51.8859 50.0667C51.8859 50.0667 49.5312 52.0063 44.3345 49.2989C44.3345 49.2989 46.5268 47.8442 48.9222 47.8846C48.9222 47.8846 52.3731 48.2483 51.8859 50.0667Z" fill="#171717"/>
</svg>
